<mxfile host="app.diagrams.net" modified="2023-09-02T18:04:37.952Z" agent="Mozilla/5.0 (Macintosh; Intel Mac OS X 10_15_7) AppleWebKit/537.36 (KHTML, like Gecko) Chrome/116.0.0.0 Safari/537.36" version="21.7.1" etag="0CnjeUIsiPHjh6BxmQKV" type="github">
  <diagram name="第 1 页" id="2VEhrR3R7-R8t06bIVIT">
    <mxGraphModel>
      <root>
        <mxCell id="0" />
        <mxCell id="1" parent="0" />
      </root>
    </mxGraphModel>
  </diagram>
</mxfile>
